<svg xmlns="http://www.w3.org/2000/svg" width="630" height="82" fill="none" viewBox="0 0 630 82"><path fill="#E5A604" fill-opacity=".8" d="M143 82L190.5 0.999993L237.5 0.999993L189.948 82L143 82Z"/><path fill="#183F66" fill-opacity=".8" d="M423 -1.92102e-06L470.5 81L517.5 81L469.948 9.60511e-06L423 -1.92102e-06Z"/><line x1="0" x2="630" y1="38" y2="38" stroke="#000" stroke-width="4"/><path fill="#E5A604" fill-opacity=".8" d="M290 -1.92102e-06L337.5 81L384.5 81L336.948 9.60511e-06L290 -1.92102e-06Z"/><path fill="#183F66" fill-opacity=".8" d="M196 -1.92102e-06L243.5 81L290.5 81L242.948 9.60511e-06L196 -1.92102e-06Z"/><path fill="#E23D1E" fill-opacity=".8" d="M431.5 -1.92102e-06L384 81L337 81L384.552 9.60511e-06L431.5 -1.92102e-06Z"/><path fill="#E23D1E" fill-opacity=".8" d="M243 -1.92102e-06L290.5 81L337.5 81L289.948 9.60511e-06L243 -1.92102e-06Z"/></svg>