<svg xmlns="http://www.w3.org/2000/svg" width="630" height="81" fill="none" viewBox="0 0 630 81"><path fill="#E5A604" fill-opacity=".8" d="M210 81L257.5 -7.06296e-06L304.5 -6.50249e-06L256.948 81L210 81Z"/><path fill="#183F66" fill-opacity=".8" d="M319 -1.92102e-06L366.5 81L413.5 81L365.948 9.60511e-06L319 -1.92102e-06Z"/><path fill="#E5A604" fill-opacity=".8" d="M115 -1.92102e-06L162.5 81L209.5 81L161.948 9.60511e-06L115 -1.92102e-06Z"/><line x1="0" x2="630" y1="38" y2="38" stroke="#000" stroke-width="4"/><path fill="#183F66" fill-opacity=".8" d="M351.5 -1.92102e-06L304 81L257 81L304.552 9.60511e-06L351.5 -1.92102e-06Z"/><path fill="#E23D1E" fill-opacity=".8" d="M515.5 -1.92102e-06L468 81L421 81L468.552 9.60511e-06L515.5 -1.92102e-06Z"/><path fill="#E23D1E" fill-opacity=".8" d="M465.5 -1.92102e-06L418 81L371 81L418.552 9.60511e-06L465.5 -1.92102e-06Z"/></svg>